<svg width="32" height="32" viewBox="0 0 32 32" fill="none" xmlns="http://www.w3.org/2000/svg">
<g id="Frame" clip-path="url(#clip0_43_114)">
<path id="Vector" d="M15.9998 2.66675C19.6225 2.66675 20.0745 2.68008 21.4958 2.74675C22.9158 2.81341 23.8825 3.03608 24.7332 3.36675C25.6132 3.70541 26.3545 4.16408 27.0958 4.90408C27.7738 5.57061 28.2984 6.37687 28.6332 7.26675C28.9625 8.11608 29.1865 9.08408 29.2532 10.5041C29.3158 11.9254 29.3332 12.3774 29.3332 16.0001C29.3332 19.6227 29.3198 20.0747 29.2532 21.4961C29.1865 22.9161 28.9625 23.8827 28.6332 24.7334C28.2994 25.6238 27.7747 26.4302 27.0958 27.0961C26.4291 27.7738 25.6229 28.2984 24.7332 28.6334C23.8838 28.9627 22.9158 29.1868 21.4958 29.2534C20.0745 29.3161 19.6225 29.3334 15.9998 29.3334C12.3772 29.3334 11.9252 29.3201 10.5038 29.2534C9.08384 29.1868 8.11717 28.9627 7.2665 28.6334C6.37627 28.2994 5.56987 27.7747 4.90384 27.0961C4.22571 26.4297 3.70108 25.6234 3.3665 24.7334C3.03584 23.8841 2.81317 22.9161 2.7465 21.4961C2.68384 20.0747 2.6665 19.6227 2.6665 16.0001C2.6665 12.3774 2.67984 11.9254 2.7465 10.5041C2.81317 9.08275 3.03584 8.11741 3.3665 7.26675C3.70015 6.37632 4.22491 5.56984 4.90384 4.90408C5.57007 4.22572 6.37641 3.70105 7.2665 3.36675C8.11717 3.03608 9.0825 2.81341 10.5038 2.74675C11.9252 2.68408 12.3772 2.66675 15.9998 2.66675ZM15.9998 9.33342C14.2317 9.33342 12.536 10.0358 11.2858 11.286C10.0355 12.5363 9.33317 14.232 9.33317 16.0001C9.33317 17.7682 10.0355 19.4639 11.2858 20.7141C12.536 21.9644 14.2317 22.6667 15.9998 22.6667C17.7679 22.6667 19.4636 21.9644 20.7139 20.7141C21.9641 19.4639 22.6665 17.7682 22.6665 16.0001C22.6665 14.232 21.9641 12.5363 20.7139 11.286C19.4636 10.0358 17.7679 9.33342 15.9998 9.33342ZM24.6665 9.00008C24.6665 8.55805 24.4909 8.13413 24.1784 7.82157C23.8658 7.50901 23.4419 7.33342 22.9998 7.33342C22.5578 7.33342 22.1339 7.50901 21.8213 7.82157C21.5088 8.13413 21.3332 8.55805 21.3332 9.00008C21.3332 9.44211 21.5088 9.86603 21.8213 10.1786C22.1339 10.4912 22.5578 10.6667 22.9998 10.6667C23.4419 10.6667 23.8658 10.4912 24.1784 10.1786C24.4909 9.86603 24.6665 9.44211 24.6665 9.00008ZM15.9998 12.0001C17.0607 12.0001 18.0781 12.4215 18.8283 13.1717C19.5784 13.9218 19.9998 14.9392 19.9998 16.0001C19.9998 17.0609 19.5784 18.0784 18.8283 18.8285C18.0781 19.5787 17.0607 20.0001 15.9998 20.0001C14.939 20.0001 13.9216 19.5787 13.1714 18.8285C12.4213 18.0784 11.9998 17.0609 11.9998 16.0001C11.9998 14.9392 12.4213 13.9218 13.1714 13.1717C13.9216 12.4215 14.939 12.0001 15.9998 12.0001Z" fill="white"/>
</g>
<defs>
<clipPath id="clip0_43_114">
<rect width="32" height="32" fill="white"/>
</clipPath>
</defs>
</svg>
