<svg width="32" height="32" viewBox="0 0 32 32" fill="none" xmlns="http://www.w3.org/2000/svg">
<g id="Frame" clip-path="url(#clip0_83_6012)">
<path id="Vector" d="M16.0003 2.6665C19.623 2.6665 20.075 2.67984 21.4963 2.7465C22.9163 2.81317 23.883 3.03584 24.7337 3.3665C25.6137 3.70517 26.355 4.16384 27.0963 4.90384C27.7743 5.57037 28.2989 6.37662 28.6337 7.2665C28.963 8.11584 29.187 9.08384 29.2537 10.5038C29.3163 11.9252 29.3337 12.3772 29.3337 15.9998C29.3337 19.6225 29.3203 20.0745 29.2537 21.4958C29.187 22.9158 28.963 23.8825 28.6337 24.7332C28.2999 25.6235 27.7752 26.43 27.0963 27.0958C26.4296 27.7736 25.6234 28.2982 24.7337 28.6332C23.8843 28.9625 22.9163 29.1865 21.4963 29.2532C20.075 29.3158 19.623 29.3332 16.0003 29.3332C12.3777 29.3332 11.9257 29.3198 10.5043 29.2532C9.08433 29.1865 8.11766 28.9625 7.26699 28.6332C6.37676 28.2991 5.57036 27.7744 4.90433 27.0958C4.2262 26.4294 3.70157 25.6231 3.36699 24.7332C3.03633 23.8838 2.81366 22.9158 2.74699 21.4958C2.68433 20.0745 2.66699 19.6225 2.66699 15.9998C2.66699 12.3772 2.68033 11.9252 2.74699 10.5038C2.81366 9.0825 3.03633 8.11717 3.36699 7.2665C3.70064 6.37608 4.2254 5.5696 4.90433 4.90384C5.57055 4.22548 6.3769 3.70081 7.26699 3.3665C8.11766 3.03584 9.08299 2.81317 10.5043 2.7465C11.9257 2.68384 12.3777 2.6665 16.0003 2.6665ZM16.0003 9.33317C14.2322 9.33317 12.5365 10.0355 11.2863 11.2858C10.036 12.536 9.33366 14.2317 9.33366 15.9998C9.33366 17.7679 10.036 19.4636 11.2863 20.7139C12.5365 21.9641 14.2322 22.6665 16.0003 22.6665C17.7684 22.6665 19.4641 21.9641 20.7144 20.7139C21.9646 19.4636 22.667 17.7679 22.667 15.9998C22.667 14.2317 21.9646 12.536 20.7144 11.2858C19.4641 10.0355 17.7684 9.33317 16.0003 9.33317ZM24.667 8.99984C24.667 8.55781 24.4914 8.13389 24.1788 7.82133C23.8663 7.50877 23.4424 7.33317 23.0003 7.33317C22.5583 7.33317 22.1344 7.50877 21.8218 7.82133C21.5093 8.13389 21.3337 8.55781 21.3337 8.99984C21.3337 9.44186 21.5093 9.86579 21.8218 10.1783C22.1344 10.4909 22.5583 10.6665 23.0003 10.6665C23.4424 10.6665 23.8663 10.4909 24.1788 10.1783C24.4914 9.86579 24.667 9.44186 24.667 8.99984ZM16.0003 11.9998C17.0612 11.9998 18.0786 12.4213 18.8288 13.1714C19.5789 13.9216 20.0003 14.939 20.0003 15.9998C20.0003 17.0607 19.5789 18.0781 18.8288 18.8283C18.0786 19.5784 17.0612 19.9998 16.0003 19.9998C14.9395 19.9998 13.922 19.5784 13.1719 18.8283C12.4218 18.0781 12.0003 17.0607 12.0003 15.9998C12.0003 14.939 12.4218 13.9216 13.1719 13.1714C13.922 12.4213 14.9395 11.9998 16.0003 11.9998Z" fill="#6854FC"/>
</g>
<defs>
<clipPath id="clip0_83_6012">
<rect width="32" height="32" fill="white"/>
</clipPath>
</defs>
</svg>
