<svg width="32" height="32" viewBox="0 0 32 32" fill="none" xmlns="http://www.w3.org/2000/svg">
<g id="Frame" clip-path="url(#clip0_43_129)">
<path id="Vector" d="M28.7241 8.66392C29.3334 11.0399 29.3334 15.9999 29.3334 15.9999C29.3334 15.9999 29.3334 20.9599 28.7241 23.3359C28.3854 24.6493 27.3947 25.6826 26.1401 26.0319C23.8614 26.6666 16.0001 26.6666 16.0001 26.6666C16.0001 26.6666 8.14275 26.6666 5.86008 26.0319C4.60008 25.6773 3.61075 24.6453 3.27608 23.3359C2.66675 20.9599 2.66675 15.9999 2.66675 15.9999C2.66675 15.9999 2.66675 11.0399 3.27608 8.66392C3.61475 7.35059 4.60541 6.31725 5.86008 5.96792C8.14275 5.33325 16.0001 5.33325 16.0001 5.33325C16.0001 5.33325 23.8614 5.33325 26.1401 5.96792C27.4001 6.32259 28.3894 7.35459 28.7241 8.66392ZM13.3334 20.6666L21.3334 15.9999L13.3334 11.3333V20.6666Z" fill="white"/>
</g>
<defs>
<clipPath id="clip0_43_129">
<rect width="32" height="32" fill="white"/>
</clipPath>
</defs>
</svg>
