<svg width="32" height="32" viewBox="0 0 32 32" fill="none" xmlns="http://www.w3.org/2000/svg">
<g id="Frame" clip-path="url(#clip0_83_6030)">
<path id="Vector" d="M28.7238 8.66416C29.3332 11.0402 29.3332 16.0002 29.3332 16.0002C29.3332 16.0002 29.3332 20.9602 28.7238 23.3362C28.3852 24.6495 27.3945 25.6828 26.1398 26.0322C23.8612 26.6668 15.9998 26.6668 15.9998 26.6668C15.9998 26.6668 8.1425 26.6668 5.85984 26.0322C4.59984 25.6775 3.6105 24.6455 3.27584 23.3362C2.6665 20.9602 2.6665 16.0002 2.6665 16.0002C2.6665 16.0002 2.6665 11.0402 3.27584 8.66416C3.6145 7.35083 4.60517 6.3175 5.85984 5.96816C8.1425 5.3335 15.9998 5.3335 15.9998 5.3335C15.9998 5.3335 23.8612 5.3335 26.1398 5.96816C27.3998 6.32283 28.3892 7.35483 28.7238 8.66416ZM13.3332 20.6668L21.3332 16.0002L13.3332 11.3335V20.6668Z" fill="#6854FC"/>
</g>
<defs>
<clipPath id="clip0_83_6030">
<rect width="32" height="32" fill="white"/>
</clipPath>
</defs>
</svg>
